<svg id="Layer_1" data-name="Layer 1" xmlns="http://www.w3.org/2000/svg" viewBox="0 0 1920 2446.71"><defs><style>.cls-1,.cls-2{fill:#1d1d1b;}.cls-1{stroke:#1d1d1b;stroke-miterlimit:10;}.cls-3{fill:#fff;}</style></defs><rect class="cls-1" width="1920" height="2446.71"/><path class="cls-2" d="M253.71,134.93c3.22,0,3.23-5,0-5s-3.22,5,0,5Z"/><path class="cls-2" d="M585.14,140.64c3.22,0,3.23-5,0-5s-3.22,5,0,5Z"/><path class="cls-2" d="M695.14,199.21c3.22,0,3.23-5,0-5s-3.22,5,0,5Z"/><path class="cls-2" d="M1208,297.79c3.22,0,3.22-5,0-5s-3.22,5,0,5Z"/><path class="cls-2" d="M668,349.21c3.22,0,3.22-5,0-5s-3.22,5,0,5Z"/><path class="cls-2" d="M1803.71,336.36c3.22,0,3.23-5,0-5s-3.22,5,0,5Z"/><path class="cls-2" d="M72.29,128.86a15.48,15.48,0,0,0,10.6-4.4,15.28,15.28,0,0,0,4.4-10.6c-.18-3.88-1.45-7.91-4.4-10.61a15,15,0,0,0-21.21,0,15.23,15.23,0,0,0-4.39,10.61c.17,3.88,1.44,7.9,4.39,10.6a15.56,15.56,0,0,0,10.61,4.4Z"/><path class="cls-2" d="M485.14,253.5c3.22,0,3.23-5,0-5s-3.22,5,0,5Z"/><path class="cls-2" d="M1653.71,366.36c3.22,0,3.23-5,0-5s-3.22,5,0,5Z"/><path class="cls-2" d="M1448,182.07c3.22,0,3.22-5,0-5s-3.22,5,0,5Z"/><path class="cls-2" d="M1432.29,216.36c3.21,0,3.22-5,0-5s-3.23,5,0,5Z"/><path class="cls-2" d="M1432.29,326.36c3.21,0,3.22-5,0-5s-3.23,5,0,5Z"/><path class="cls-2" d="M263.71,193.5c3.22,0,3.23-5,0-5s-3.22,5,0,5Z"/><path class="cls-2" d="M853.88,412.16c-2.57,25.6,2.26,51.37,12.47,74.88,10.3,23.74,26,45.1,45,62.62a200.57,200.57,0,0,0,68.66,41.22c28.36,10.16,58.66,14.47,88.73,14.3,30.37-.17,60.69-4.82,90-12.74q5.38-1.46,10.73-3.07c3.08-.92,1.77-5.75-1.33-4.82a359.9,359.9,0,0,1-87.94,15.36c-29.49,1.26-59.24-1.66-87.57-10.15-25.8-7.74-50-20.13-70.69-37.46a187.36,187.36,0,0,1-47.21-59c-11.16-22.2-17.34-47-16.5-71.88.11-3.07.32-6.15.63-9.21a2.52,2.52,0,0,0-2.5-2.5,2.55,2.55,0,0,0-2.5,2.5Z"/><path class="cls-3" d="M1322.29,386.36c3.21,0,3.22-5,0-5s-3.23,5,0,5Z"/><path class="cls-3" d="M565.14,242.07c3.22,0,3.23-5,0-5s-3.22,5,0,5Z"/><path class="cls-3" d="M500.86,583.5c3.21,0,3.22-5,0-5s-3.23,5,0,5Z"/><path class="cls-3" d="M308,382.07c3.22,0,3.22-5,0-5s-3.22,5,0,5Z"/><path class="cls-3" d="M1000.86,313.5c3.21,0,3.22-5,0-5s-3.23,5,0,5Z"/><path class="cls-3" d="M1253.71,592.07c3.22,0,3.23-5,0-5s-3.22,5,0,5Z"/><path class="cls-3" d="M1529.43,332.07c3.22,0,3.22-5,0-5s-3.22,5,0,5Z"/><path class="cls-3" d="M802.29,437.79c3.21,0,3.22-5,0-5s-3.23,5,0,5Z"/><path class="cls-3" d="M805.14,593.5c3.22,0,3.23-5,0-5s-3.22,5,0,5Z"/><path class="cls-3" d="M630.86,442.07c3.21,0,3.22-5,0-5s-3.23,5,0,5Z"/><path class="cls-3" d="M370.86,614.93c3.21,0,3.22-5,0-5s-3.23,5,0,5Z"/><path class="cls-3" d="M468,714.93c3.22,0,3.22-5,0-5s-3.22,5,0,5Z"/><path class="cls-3" d="M353.71,893.5c3.22,0,3.23-5,0-5s-3.22,5,0,5Z"/><path class="cls-3" d="M206.57,927.79c3.22,0,3.22-5,0-5s-3.22,5,0,5Z"/><path class="cls-3" d="M203.71,774.93c3.22,0,3.23-5,0-5s-3.22,5,0,5Z"/><path class="cls-3" d="M280.86,607.79c3.21,0,3.22-5,0-5s-3.23,5,0,5Z"/><path class="cls-3" d="M120.86,593.5c3.21,0,3.22-5,0-5s-3.23,5,0,5Z"/><path class="cls-3" d="M72.29,334.93c3.21,0,3.22-5,0-5s-3.23,5,0,5Z"/><path class="cls-3" d="M215.14,182.07c3.22,0,3.23-5,0-5s-3.22,5,0,5Z"/><path class="cls-3" d="M446.57,297.79c3.22,0,3.22-5,0-5s-3.22,5,0,5Z"/><path class="cls-3" d="M538,127.79c3.22,0,3.22-5,0-5s-3.22,5,0,5Z"/><path class="cls-3" d="M875.14,237.79c3.22,0,3.23-5,0-5s-3.22,5,0,5Z"/><path class="cls-3" d="M1046.57,144.93c3.22,0,3.22-5,0-5s-3.22,5,0,5Z"/><path class="cls-3" d="M1369.43,179.21c3.22,0,3.22-5,0-5s-3.22,5,0,5Z"/><path class="cls-3" d="M1415.14,122.07c3.22,0,3.23-5,0-5s-3.22,5,0,5Z"/><path class="cls-3" d="M1810.86,202.07c3.21,0,3.22-5,0-5s-3.23,5,0,5Z"/><path class="cls-3" d="M1758,454.93c3.22,0,3.22-5,0-5s-3.22,5,0,5Z"/><path class="cls-3" d="M1653.71,359.21c3.22,0,3.23-5,0-5s-3.22,5,0,5Z"/><path class="cls-3" d="M1685.14,264.93c3.22,0,3.23-5,0-5s-3.22,5,0,5Z"/><path class="cls-3" d="M1616.57,177.79c3.22,0,3.22-5,0-5s-3.22,5,0,5Z"/><path class="cls-3" d="M1739.43,97.79c3.22,0,3.22-5,0-5s-3.22,5,0,5Z"/><path class="cls-3" d="M1756.57,619.21c3.22,0,3.22-5,0-5s-3.22,5,0,5Z"/><path class="cls-3" d="M1602.29,572.07c3.21,0,3.22-5,0-5s-3.23,5,0,5Z"/><path class="cls-3" d="M1612.29,500.64c3.21,0,3.22-5,0-5s-3.23,5,0,5Z"/><path class="cls-3" d="M1465.14,493.5c3.22,0,3.23-5,0-5s-3.22,5,0,5Z"/><path class="cls-3" d="M1502.29,627.79c3.21,0,3.22-5,0-5s-3.23,5,0,5Z"/><path class="cls-3" d="M1319.43,700.64c3.22,0,3.22-5,0-5s-3.22,5,0,5Z"/><path class="cls-3" d="M1522.29,800.64c3.21,0,3.22-5,0-5s-3.23,5,0,5Z"/><path class="cls-3" d="M1593.71,684.93c3.22,0,3.23-5,0-5s-3.22,5,0,5Z"/><path class="cls-3" d="M1803.71,859.21c3.22,0,3.23-5,0-5s-3.22,5,0,5Z"/><path class="cls-3" d="M1642.29,992.07c3.21,0,3.22-5,0-5s-3.23,5,0,5Z"/><path class="cls-3" d="M1439.43,949.21c3.22,0,3.22-5,0-5s-3.22,5,0,5Z"/><path class="cls-3" d="M1422.29,842.07c3.21,0,3.22-5,0-5s-3.23,5,0,5Z"/><path class="cls-3" d="M1178,912.07c3.22,0,3.22-5,0-5s-3.22,5,0,5Z"/><path class="cls-3" d="M1022.29,794.93c3.21,0,3.22-5,0-5s-3.23,5,0,5Z"/><path class="cls-3" d="M932.29,866.36c3.21,0,3.22-5,0-5s-3.23,5,0,5Z"/><path class="cls-3" d="M810.86,822.07c3.21,0,3.22-5,0-5s-3.23,5,0,5Z"/><path class="cls-3" d="M643.71,989.21c3.22,0,3.23-5,0-5s-3.22,5,0,5Z"/><path class="cls-3" d="M623.71,892.07c3.22,0,3.23-5,0-5s-3.22,5,0,5Z"/><path class="cls-3" d="M712.29,774.93c3.21,0,3.22-5,0-5s-3.23,5,0,5Z"/><path class="cls-3" d="M628,687.79c3.22,0,3.22-5,0-5s-3.22,5,0,5Z"/><path class="cls-3" d="M480.86,804.93c3.21,0,3.22-5,0-5s-3.23,5,0,5Z"/><path class="cls-3" d="M486.57,936.36c3.22,0,3.22-5,0-5s-3.22,5,0,5Z"/><path class="cls-3" d="M592.29,816.36c3.21,0,3.22-5,0-5s-3.23,5,0,5Z"/><path class="cls-3" d="M739.43,700.64c3.22,0,3.22-5,0-5s-3.22,5,0,5Z"/><path class="cls-3" d="M692.29,559.21c3.21,0,3.22-5,0-5s-3.23,5,0,5Z"/><path class="cls-3" d="M1108,417.79c3.22,0,3.22-5,0-5s-3.22,5,0,5Z"/><path class="cls-3" d="M1100.86,627.79c3.21,0,3.22-5,0-5s-3.23,5,0,5Z"/><path class="cls-3" d="M1172.29,254.93c3.21,0,3.22-5,0-5s-3.23,5,0,5Z"/><path class="cls-3" d="M815.14,102.07c3.22,0,3.23-5,0-5s-3.22,5,0,5Z"/><path class="cls-3" d="M720.86,329.21c3.21,0,3.22-5,0-5s-3.23,5,0,5Z"/><path class="cls-3" d="M473.71,437.79c3.22,0,3.23-5,0-5s-3.22,5,0,5Z"/><path class="cls-3" d="M138,477.79c3.22,0,3.22-5,0-5s-3.22,5,0,5Z"/><path class="cls-3" d="M296.57,290.64c3.22,0,3.22-5,0-5s-3.22,5,0,5Z"/><path class="cls-3" d="M62.29,844.93c3.21,0,3.22-5,0-5s-3.23,5,0,5Z"/><path class="cls-3" d="M166.57,676.36c3.22,0,3.22-5,0-5s-3.22,5,0,5Z"/><path class="cls-3" d="M816.57,989.21c3.22,0,3.22-5,0-5s-3.22,5,0,5Z"/><path class="cls-3" d="M1048,1003.5c3.22,0,3.22-5,0-5s-3.22,5,0,5Z"/><path class="cls-3" d="M1173.71,800.64c3.22,0,3.23-5,0-5s-3.22,5,0,5Z"/><path class="cls-3" d="M989.43,687.79c3.22,0,3.22-5,0-5s-3.22,5,0,5Z"/><path class="cls-3" d="M1092.29,513.5c3.21,0,3.22-5,0-5s-3.23,5,0,5Z"/><path class="cls-3" d="M1279.43,147.79c3.22,0,3.22-5,0-5s-3.22,5,0,5Z"/><path class="cls-3" d="M1208,57.79c3.22,0,3.22-5,0-5s-3.22,5,0,5Z"/><path class="cls-3" d="M1138,167.79c3.22,0,3.22-5,0-5s-3.22,5,0,5Z"/><path class="cls-3" d="M420.86,82.07c3.21,0,3.22-5,0-5s-3.23,5,0,5Z"/><path class="cls-3" d="M93.71,112.07c3.22,0,3.23-5,0-5s-3.22,5,0,5Z"/><path class="cls-3" d="M206.57,47.79c3.22,0,3.22-5,0-5s-3.22,5,0,5Z"/><path class="cls-3" d="M386.57,179.21c3.22,0,3.22-5,0-5s-3.22,5,0,5Z"/><path class="cls-3" d="M1355.14,594.93c3.22,0,3.23-5,0-5s-3.22,5,0,5Z"/><path class="cls-3" d="M1419.43,409.21c3.22,0,3.22-5,0-5s-3.22,5,0,5Z"/><path class="cls-3" d="M1780.86,986.36c3.21,0,3.22-5,0-5s-3.23,5,0,5Z"/><path class="cls-3" d="M1659.43,893.5c3.22,0,3.22-5,0-5s-3.22,5,0,5Z"/><path class="cls-3" d="M1758,779.21c3.22,0,3.22-5,0-5s-3.22,5,0,5Z"/><path class="cls-3" d="M1339.43,1042.07c3.22,0,3.22-5,0-5s-3.22,5,0,5Z"/><path class="cls-3" d="M1339.43,979.21c3.22,0,3.22-5,0-5s-3.22,5,0,5Z"/><path class="cls-3" d="M1295.14,877.79c3.22,0,3.23-5,0-5s-3.22,5,0,5Z"/><path class="cls-3" d="M406.57,1023.5c3.22,0,3.22-5,0-5s-3.22,5,0,5Z"/><path class="cls-3" d="M163.71,1030.64c3.22,0,3.23-5,0-5s-3.22,5,0,5Z"/><path class="cls-3" d="M70.86,1009.21c3.21,0,3.22-5,0-5s-3.23,5,0,5Z"/><path class="cls-3" d="M300.86,804.93c3.21,0,3.22-5,0-5s-3.23,5,0,5Z"/><path class="cls-3" d="M355.14,744.93c3.22,0,3.23-5,0-5s-3.22,5,0,5Z"/><path class="cls-3" d="M209.43,354.93c3.22,0,3.22-5,0-5s-3.22,5,0,5Z"/><path class="cls-3" d="M338,507.79c3.22,0,3.22-5,0-5s-3.22,5,0,5Z"/><path class="cls-3" d="M660.86,113.5c3.21,0,3.22-5,0-5s-3.23,5,0,5Z"/><path class="cls-3" d="M726.57,222.07c3.22,0,3.22-5,0-5s-3.22,5,0,5Z"/><path class="cls-3" d="M1599.43,56.36c3.22,0,3.22-5,0-5s-3.22,5,0,5Z"/><path class="cls-3" d="M1485.14,234.93c3.22,0,3.23-5,0-5s-3.22,5,0,5Z"/><path class="cls-3" d="M1226.57,360.64c3.22,0,3.22-5,0-5s-3.22,5,0,5Z"/><path class="cls-3" d="M1250.86,497.79c3.21,0,3.22-5,0-5s-3.23,5,0,5Z"/><path class="cls-3" d="M970.86,447.79c3.21,0,3.22-5,0-5s-3.23,5,0,5Z"/><path class="cls-2" d="M60.86,1127.79c3.21,0,3.22-5,0-5s-3.23,5,0,5Z"/><path class="cls-2" d="M242.29,1203.5c3.21,0,3.22-5,0-5s-3.23,5,0,5Z"/><path class="cls-3" d="M528,1227.79c3.22,0,3.22-5,0-5s-3.22,5,0,5Z"/><path class="cls-3" d="M605.14,1372.07c3.22,0,3.23-5,0-5s-3.22,5,0,5Z"/><path class="cls-3" d="M700.86,1236.36c3.21,0,3.22-5,0-5s-3.23,5,0,5Z"/><path class="cls-3" d="M450.86,1372.07c3.21,0,3.22-5,0-5s-3.23,5,0,5Z"/><path class="cls-3" d="M295.14,1277.79c3.22,0,3.23-5,0-5s-3.22,5,0,5Z"/><path class="cls-3" d="M235.14,1482.07c3.22,0,3.23-5,0-5s-3.22,5,0,5Z"/><path class="cls-3" d="M409.43,1490.64c3.22,0,3.22-5,0-5s-3.22,5,0,5Z"/><path class="cls-3" d="M302.29,1406.36c3.21,0,3.22-5,0-5s-3.23,5,0,5Z"/><path class="cls-3" d="M143.71,1406.36c3.22,0,3.23-5,0-5s-3.22,5,0,5Z"/><path class="cls-3" d="M156.57,1216.36c3.22,0,3.22-5,0-5s-3.22,5,0,5Z"/><path class="cls-3" d="M345.14,1176.36c3.22,0,3.23-5,0-5s-3.22,5,0,5Z"/><path class="cls-3" d="M388,1122.07c3.22,0,3.22-5,0-5s-3.22,5,0,5Z"/><path class="cls-3" d="M669.43,1129.21c3.22,0,3.22-5,0-5s-3.22,5,0,5Z"/><path class="cls-3" d="M653.71,1243.5c3.22,0,3.23-5,0-5s-3.22,5,0,5Z"/><path class="cls-3" d="M803.71,1326.36c3.22,0,3.23-5,0-5s-3.22,5,0,5Z"/><path class="cls-3" d="M866.57,1149.21c3.22,0,3.22-5,0-5s-3.22,5,0,5Z"/><path class="cls-3" d="M1049.43,1149.21c3.22,0,3.22-5,0-5s-3.22,5,0,5Z"/><path class="cls-3" d="M1062.29,1297.79c3.21,0,3.22-5,0-5s-3.23,5,0,5Z"/><path class="cls-3" d="M902.29,1276.36c3.21,0,3.22-5,0-5s-3.23,5,0,5Z"/><path class="cls-3" d="M1182.29,1214.93c3.21,0,3.22-5,0-5s-3.23,5,0,5Z"/><path class="cls-3" d="M1333.71,1379.21c3.22,0,3.23-5,0-5s-3.22,5,0,5Z"/><path class="cls-3" d="M1505.14,1334.93c3.22,0,3.23-5,0-5s-3.22,5,0,5Z"/><path class="cls-3" d="M1518,1270.64c3.22,0,3.22-5,0-5s-3.22,5,0,5Z"/><path class="cls-3" d="M1409.43,1286.36c3.22,0,3.22-5,0-5s-3.22,5,0,5Z"/><path class="cls-3" d="M1516.57,1176.36c3.22,0,3.22-5,0-5s-3.22,5,0,5Z"/><path class="cls-3" d="M1570.86,1189.21c3.21,0,3.22-5,0-5s-3.23,5,0,5Z"/><path class="cls-3" d="M1589.43,1274.93c3.22,0,3.22-5,0-5s-3.22,5,0,5Z"/><path class="cls-3" d="M1770.86,1290.64c3.21,0,3.22-5,0-5s-3.23,5,0,5Z"/><path class="cls-3" d="M1783.71,1207.79c3.22,0,3.23-5,0-5s-3.22,5,0,5Z"/><path class="cls-3" d="M1708,1250.64c3.22,0,3.22-5,0-5s-3.22,5,0,5Z"/><path class="cls-3" d="M1710.86,1300.64c3.21,0,3.22-5,0-5s-3.23,5,0,5Z"/><path class="cls-3" d="M1642.29,1209.21c3.21,0,3.22-5,0-5s-3.23,5,0,5Z"/><path class="cls-3" d="M1689.43,1136.36c3.22,0,3.22-5,0-5s-3.22,5,0,5Z"/><path class="cls-3" d="M1328,1149.21c3.22,0,3.22-5,0-5s-3.22,5,0,5Z"/><path class="cls-3" d="M1318,1244.93c3.22,0,3.22-5,0-5s-3.22,5,0,5Z"/><path class="cls-3" d="M1216.57,1337.79c3.22,0,3.22-5,0-5s-3.22,5,0,5Z"/><path class="cls-3" d="M1440.86,1197.79c3.21,0,3.22-5,0-5s-3.23,5,0,5Z"/><path class="cls-3" d="M1215.14,1126.36c3.22,0,3.23-5,0-5s-3.22,5,0,5Z"/><path class="cls-3" d="M1208,990.64c3.22,0,3.22-5,0-5s-3.22,5,0,5Z"/><path class="cls-3" d="M1422.29,1036.36c3.21,0,3.22-5,0-5s-3.23,5,0,5Z"/><path class="cls-3" d="M153.71,1662.07c3.22,0,3.23-5,0-5s-3.22,5,0,5Z"/><path class="cls-3" d="M309.43,1704.93c3.22,0,3.22-5,0-5s-3.22,5,0,5Z"/><path class="cls-3" d="M368,1620.64c3.22,0,3.22-5,0-5s-3.22,5,0,5Z"/><path class="cls-3" d="M199.43,1697.79c3.22,0,3.22-5,0-5s-3.22,5,0,5Z"/><path class="cls-3" d="M260.86,1797.79c3.21,0,3.22-5,0-5s-3.23,5,0,5Z"/><path class="cls-3" d="M462.29,1766.36c3.21,0,3.22-5,0-5s-3.23,5,0,5Z"/><path class="cls-3" d="M455.14,1649.21c3.22,0,3.23-5,0-5s-3.22,5,0,5Z"/><path class="cls-3" d="M563.71,1566.36c3.22,0,3.23-5,0-5s-3.22,5,0,5Z"/><path class="cls-3" d="M687.66,1615.62l1.43,1.43a1.82,1.82,0,0,0,.8.52,2.23,2.23,0,0,0,1.93,0,1.77,1.77,0,0,0,.8-.52l.4-.5a2.53,2.53,0,0,0,.34-1.26l-.09-.67a2.52,2.52,0,0,0-.65-1.1l-1.42-1.43a2,2,0,0,0-.81-.52,1.88,1.88,0,0,0-1-.21,1.83,1.83,0,0,0-1,.21,2,2,0,0,0-.81.52l-.39.51a2.43,2.43,0,0,0-.34,1.26l.09.66a2.45,2.45,0,0,0,.64,1.1Z"/><path class="cls-3" d="M749.43,1553.5c3.22,0,3.22-5,0-5s-3.22,5,0,5Z"/><path class="cls-3" d="M753.71,1483.5c3.22,0,3.23-5,0-5s-3.22,5,0,5Z"/><path class="cls-3" d="M668,1493.5c3.22,0,3.22-5,0-5s-3.22,5,0,5Z"/><path class="cls-3" d="M723.71,1577.79c3.22,0,3.23-5,0-5s-3.22,5,0,5Z"/><path class="cls-3" d="M1105.14,1639.21c3.22,0,3.23-5,0-5s-3.22,5,0,5Z"/><path class="cls-3" d="M1129.43,1459.21c3.22,0,3.22-5,0-5s-3.22,5,0,5Z"/><path class="cls-3" d="M892.29,1447.79c3.21,0,3.22-5,0-5s-3.23,5,0,5Z"/><path class="cls-3" d="M1083.71,1372.07c3.22,0,3.23-5,0-5s-3.22,5,0,5Z"/><path class="cls-3" d="M1039.43,1496.36c3.22,0,3.22-5,0-5s-3.22,5,0,5Z"/><path class="cls-3" d="M898,1507.79c3.22,0,3.22-5,0-5s-3.22,5,0,5Z"/><path class="cls-3" d="M960.86,1590.64c3.21,0,3.22-5,0-5s-3.23,5,0,5Z"/><path class="cls-3" d="M933.71,1692.07c3.22,0,3.23-5,0-5s-3.22,5,0,5Z"/><path class="cls-3" d="M1092.29,1734.93c3.21,0,3.22-5,0-5s-3.23,5,0,5Z"/><path class="cls-3" d="M1010.86,1620.64c3.21,0,3.22-5,0-5s-3.23,5,0,5Z"/><path class="cls-3" d="M1128,1560.64c3.22,0,3.22-5,0-5s-3.22,5,0,5Z"/><path class="cls-3" d="M1416.57,1607.79c3.22,0,3.22-5,0-5s-3.22,5,0,5Z"/><path class="cls-3" d="M1340.86,1813.5c3.21,0,3.22-5,0-5s-3.23,5,0,5Z"/><path class="cls-3" d="M1599.43,1836.36c3.22,0,3.22-5,0-5s-3.22,5,0,5Z"/><path class="cls-3" d="M1463.71,1747.79c3.22,0,3.23-5,0-5s-3.22,5,0,5Z"/><path class="cls-3" d="M1279.43,1694.93c3.22,0,3.22-5,0-5s-3.22,5,0,5Z"/><path class="cls-3" d="M1198,1809.21c3.22,0,3.22-5,0-5s-3.22,5,0,5Z"/><path class="cls-3" d="M1165.14,1672.07c3.22,0,3.23-5,0-5s-3.22,5,0,5Z"/><path class="cls-3" d="M1233.71,1634.93c3.22,0,3.23-5,0-5s-3.22,5,0,5Z"/><path class="cls-3" d="M1182.29,1567.79c3.21,0,3.22-5,0-5s-3.23,5,0,5Z"/><path class="cls-3" d="M1270.86,1510.64c3.21,0,3.22-5,0-5s-3.23,5,0,5Z"/><path class="cls-3" d="M1219.43,1469.21c3.22,0,3.22-5,0-5s-3.22,5,0,5Z"/><path class="cls-3" d="M1416.57,1432.07c3.22,0,3.22-5,0-5s-3.22,5,0,5Z"/><path class="cls-3" d="M1539.43,1583.5c3.22,0,3.22-5,0-5s-3.22,5,0,5Z"/><path class="cls-3" d="M1658,1499.21c3.22,0,3.22-5,0-5s-3.22,5,0,5Z"/><path class="cls-3" d="M1710,1646.59l2.88,5.71a2.49,2.49,0,0,0,4.56-.6,2.67,2.67,0,0,0-.25-1.92l-2.87-5.71a2.56,2.56,0,0,0-1.49-1.15,2.5,2.5,0,0,0-3.08,1.75,2.78,2.78,0,0,0,.25,1.92Z"/><path class="cls-3" d="M1616.57,1719.21c3.22,0,3.22-5,0-5s-3.22,5,0,5Z"/><path class="cls-3" d="M1718,1720.64c3.22,0,3.22-5,0-5s-3.22,5,0,5Z"/><path class="cls-3" d="M1762.29,1579.21c3.21,0,3.22-5,0-5s-3.23,5,0,5Z"/><path class="cls-3" d="M1682.29,1573.5c3.21,0,3.22-5,0-5s-3.23,5,0,5Z"/><path class="cls-3" d="M1739.43,1503.5c3.22,0,3.22-5,0-5s-3.22,5,0,5Z"/><path class="cls-3" d="M1666.57,1440.64c3.22,0,3.22-5,0-5s-3.22,5,0,5Z"/><path class="cls-3" d="M1570.86,1486.36c3.21,0,3.22-5,0-5s-3.23,5,0,5Z"/><path class="cls-3" d="M1483.71,1472.07c3.22,0,3.23-5,0-5s-3.22,5,0,5Z"/><path class="cls-3" d="M1450.86,1556.36c3.21,0,3.22-5,0-5s-3.23,5,0,5Z"/><path class="cls-3" d="M1348,1569.21c3.22,0,3.22-5,0-5s-3.22,5,0,5Z"/><path class="cls-3" d="M1589.43,1404.93c3.22,0,3.22-5,0-5s-3.22,5,0,5Z"/><path class="cls-3" d="M1696.57,1360.64c3.22,0,3.22-5,0-5s-3.22,5,0,5Z"/><path class="cls-3" d="M1769.43,1417.79c3.22,0,3.22-5,0-5s-3.22,5,0,5Z"/><path class="cls-3" d="M1828,1399.21c3.22,0,3.22-5,0-5s-3.22,5,0,5Z"/><path class="cls-3" d="M1843.71,1504.93c3.22,0,3.23-5,0-5s-3.22,5,0,5Z"/><path class="cls-3" d="M1865.14,1520.64c3.22,0,3.23-5,0-5s-3.22,5,0,5Z"/><path class="cls-3" d="M1860.86,1669.21c3.21,0,3.22-5,0-5s-3.23,5,0,5Z"/><path class="cls-3" d="M1804.07,1778.14v4.29a2.61,2.61,0,0,0,.73,1.77,2.57,2.57,0,0,0,1.77.73,2.53,2.53,0,0,0,1.77-.73,2.59,2.59,0,0,0,.73-1.77v-4.29a2.57,2.57,0,0,0-.73-1.76,2.49,2.49,0,0,0-3.54,0,2.57,2.57,0,0,0-.73,1.76Z"/><path class="cls-3" d="M1834.8,1858.48l1.43,1.43a2,2,0,0,0,.81.52,2.3,2.3,0,0,0,1.92,0,2,2,0,0,0,.81-.52l.39-.51a2.53,2.53,0,0,0,.34-1.26l-.09-.66a2.45,2.45,0,0,0-.64-1.1l-1.43-1.43a2.83,2.83,0,0,0-1.77-.74,1.88,1.88,0,0,0-1,.22,1.85,1.85,0,0,0-.81.52l-.39.5a2.53,2.53,0,0,0-.34,1.26l.09.67a2.5,2.5,0,0,0,.64,1.1Z"/><path class="cls-3" d="M1848,1596.36c3.22,0,3.22-5,0-5s-3.22,5,0,5Z"/><path class="cls-3" d="M1813.71,1150.64c3.22,0,3.23-5,0-5s-3.22,5,0,5Z"/><path class="cls-3" d="M1846.57,1073.5c3.22,0,3.22-5,0-5s-3.22,5,0,5Z"/><path class="cls-3" d="M162.29,1932.07c3.21,0,3.22-5,0-5s-3.23,5,0,5Z"/><path class="cls-3" d="M599.43,1840.64c3.22,0,3.22-5,0-5s-3.22,5,0,5Z"/><path class="cls-3" d="M787.66,2045.62l1.43,1.43a1.82,1.82,0,0,0,.8.52,2.23,2.23,0,0,0,1.93,0,1.77,1.77,0,0,0,.8-.52l.4-.5a2.53,2.53,0,0,0,.34-1.26l-.09-.67a2.52,2.52,0,0,0-.65-1.1l-1.42-1.43a2,2,0,0,0-.81-.52,1.88,1.88,0,0,0-1-.21,1.83,1.83,0,0,0-1,.21,2,2,0,0,0-.81.52l-.39.51a2.43,2.43,0,0,0-.34,1.26l.09.66a2.45,2.45,0,0,0,.64,1.1Z"/><path class="cls-3" d="M602.29,2232.07c3.21,0,3.22-5,0-5s-3.23,5,0,5Z"/><path class="cls-3" d="M1690.86,2327.79c3.21,0,3.22-5,0-5s-3.23,5,0,5Z"/><path class="cls-3" d="M1602.29,2046.36c3.21,0,3.22-5,0-5s-3.23,5,0,5Z"/><path class="cls-3" d="M1258,2213.5c3.22,0,3.22-5,0-5s-3.22,5,0,5Z"/><path class="cls-3" d="M948,1853.5c3.22,0,3.22-5,0-5s-3.22,5,0,5Z"/><path class="cls-3" d="M565.14,2072.07c3.22,0,3.23-5,0-5s-3.22,5,0,5Z"/><path class="cls-3" d="M869.43,2207.79c3.22,0,3.22-5,0-5s-3.22,5,0,5Z"/><path class="cls-3" d="M1185.14,1936.36c3.22,0,3.23-5,0-5s-3.22,5,0,5Z"/><path class="cls-3" d="M1502.29,2116.36c3.21,0,3.22-5,0-5s-3.23,5,0,5Z"/><path class="cls-3" d="M1423.71,2279.21c3.22,0,3.23-5,0-5s-3.22,5,0,5Z"/><path class="cls-3" d="M1225.14,2122.07c3.22,0,3.23-5,0-5s-3.22,5,0,5Z"/><path class="cls-3" d="M1186.57,2274.93c3.22,0,3.22-5,0-5s-3.22,5,0,5Z"/><path class="cls-3" d="M1009.43,2032.07c3.22,0,3.22-5,0-5s-3.22,5,0,5Z"/><path class="cls-3" d="M593.71,1983.5c3.22,0,3.23-5,0-5s-3.22,5,0,5Z"/><path class="cls-3" d="M476.57,2110.64c3.22,0,3.22-5,0-5s-3.22,5,0,5Z"/><path class="cls-3" d="M452.29,2244.93c3.21,0,3.22-5,0-5s-3.23,5,0,5Z"/><path class="cls-3" d="M263.71,2332.07c3.22,0,3.23-5,0-5s-3.22,5,0,5Z"/><path class="cls-3" d="M249.43,2112.07c3.22,0,3.22-5,0-5s-3.22,5,0,5Z"/><path class="cls-3" d="M399.43,1974.93c3.22,0,3.22-5,0-5s-3.22,5,0,5Z"/><path class="cls-3" d="M135.14,2147.79c3.22,0,3.23-5,0-5s-3.22,5,0,5Z"/><path class="cls-3" d="M136.57,2254.93c3.22,0,3.22-5,0-5s-3.22,5,0,5Z"/><path class="cls-3" d="M78,1836.36c3.22,0,3.22-5,0-5s-3.22,5,0,5Z"/><path class="cls-3" d="M80.86,2380.64c3.21,0,3.22-5,0-5s-3.23,5,0,5Z"/><path class="cls-3" d="M86.57,2079.21c3.22,0,3.22-5,0-5s-3.22,5,0,5Z"/><path class="cls-3" d="M593.71,1694.93c3.22,0,3.23-5,0-5s-3.22,5,0,5Z"/><path class="cls-3" d="M769.43,1696.36c3.22,0,3.22-5,0-5s-3.22,5,0,5Z"/><path class="cls-3" d="M736.57,1920.64c3.22,0,3.22-5,0-5s-3.22,5,0,5Z"/><path class="cls-3" d="M1046.57,1956.36c3.22,0,3.22-5,0-5s-3.22,5,0,5Z"/><path class="cls-3" d="M1103.71,2234.93c3.22,0,3.23-5,0-5s-3.22,5,0,5Z"/><path class="cls-3" d="M913.71,2363.5c3.22,0,3.23-5,0-5s-3.22,5,0,5Z"/><path class="cls-3" d="M628,2396.36c3.22,0,3.22-5,0-5s-3.22,5,0,5Z"/><path class="cls-3" d="M768,2233.5c3.22,0,3.22-5,0-5s-3.22,5,0,5Z"/><path class="cls-3" d="M692.29,2167.79c3.21,0,3.22-5,0-5s-3.23,5,0,5Z"/><path class="cls-3" d="M953.71,2117.79c3.22,0,3.23-5,0-5s-3.22,5,0,5Z"/><path class="cls-3" d="M1100.86,2107.79c3.21,0,3.22-5,0-5s-3.23,5,0,5Z"/><path class="cls-3" d="M1328,1996.36c3.22,0,3.22-5,0-5s-3.22,5,0,5Z"/><path class="cls-3" d="M1489.43,1960.64c3.22,0,3.22-5,0-5s-3.22,5,0,5Z"/><path class="cls-3" d="M1728,1937.79c3.22,0,3.22-5,0-5s-3.22,5,0,5Z"/><path class="cls-3" d="M1736.57,2080.64c3.22,0,3.22-5,0-5s-3.22,5,0,5Z"/><path class="cls-3" d="M1793.71,2176.36c3.22,0,3.23-5,0-5s-3.22,5,0,5Z"/><path class="cls-3" d="M1615.14,2263.5c3.22,0,3.23-5,0-5s-3.22,5,0,5Z"/><path class="cls-3" d="M1603.71,2354.93c3.22,0,3.23-5,0-5s-3.22,5,0,5Z"/><path class="cls-3" d="M1333.71,2374.93c3.22,0,3.23-5,0-5s-3.22,5,0,5Z"/><path class="cls-3" d="M1372.29,2129.21c3.21,0,3.22-5,0-5s-3.23,5,0,5Z"/><path class="cls-3" d="M1392.29,1899.21c3.21,0,3.22-5,0-5s-3.23,5,0,5Z"/><path class="cls-3" d="M1466.57,1839.21c3.22,0,3.22-5,0-5s-3.22,5,0,5Z"/><path class="cls-3" d="M1749.43,2002.07c3.22,0,3.22-5,0-5s-3.22,5,0,5Z"/><path class="cls-3" d="M1606.57,1939.21c3.22,0,3.22-5,0-5s-3.22,5,0,5Z"/><path class="cls-3" d="M906.57,1986.36c3.22,0,3.22-5,0-5s-3.22,5,0,5Z"/><path class="cls-3" d="M795.14,1869.21c3.22,0,3.23-5,0-5s-3.22,5,0,5Z"/><path class="cls-3" d="M873.71,1794.93c3.22,0,3.23-5,0-5s-3.22,5,0,5Z"/><path class="cls-3" d="M668,1799.21c3.22,0,3.22-5,0-5s-3.22,5,0,5Z"/><path class="cls-3" d="M445.14,1873.5c3.22,0,3.23-5,0-5s-3.22,5,0,5Z"/><path class="cls-3" d="M293.71,1933.5c3.22,0,3.23-5,0-5s-3.22,5,0,5Z"/><path class="cls-3" d="M405.14,2074.93c3.22,0,3.23-5,0-5s-3.22,5,0,5Z"/><path class="cls-3" d="M323.71,2179.21c3.22,0,3.23-5,0-5s-3.22,5,0,5Z"/><path class="cls-3" d="M370.86,2267.79c3.21,0,3.22-5,0-5s-3.23,5,0,5Z"/></svg>