<svg id="Layer_1" data-name="Layer 1" xmlns="http://www.w3.org/2000/svg" xmlns:xlink="http://www.w3.org/1999/xlink" viewBox="0 0 1920 1080"><defs><style>.cls-1{fill:#e94e1b;}.cls-2{fill:#e6007e;}.cls-3{fill:#e30613;}.cls-4{fill:#009fe3;}.cls-5{fill:#009640;}.cls-6{fill:#ffed00;}.cls-7{fill:url(#linear-gradient);}.cls-8{fill:#1d1d1b;}.cls-9{fill:url(#linear-gradient-2);}.cls-10{fill:#706f6f;stroke:#1d1d1b;stroke-miterlimit:10;}</style><linearGradient id="linear-gradient" x1="933.37" y1="517.26" x2="1131.18" y2="517.26" gradientUnits="userSpaceOnUse"><stop offset="0" stop-color="#fff"/><stop offset="1" stop-color="#427ec1"/></linearGradient><linearGradient id="linear-gradient-2" x1="1164.67" y1="514.49" x2="1412.16" y2="514.49" gradientUnits="userSpaceOnUse"><stop offset="0.08" stop-color="#fff"/><stop offset="0.11" stop-color="#ebf1f8"/><stop offset="0.2" stop-color="#bed3ea"/><stop offset="0.29" stop-color="#98b9dd"/><stop offset="0.38" stop-color="#79a3d3"/><stop offset="0.48" stop-color="#6193cb"/><stop offset="0.58" stop-color="#4f87c5"/><stop offset="0.69" stop-color="#4580c2"/><stop offset="0.82" stop-color="#427ec1"/></linearGradient></defs><path class="cls-1" d="M1703.08,695.3q-1-65.71-.31-131.44c.1-9.66-14.9-9.66-15,0q-.72,65.71.31,131.44c.16,9.64,15.16,9.67,15,0Z"/><path class="cls-2" d="M1648,551.74a1108,1108,0,0,0-137.1-.09c-9.59.59-9.66,15.59,0,15a1108,1108,0,0,1,137.1.09c9.64.61,9.6-14.4,0-15Z"/><path class="cls-3" d="M1466.17,545.71c-20.87-24.84-41.63-49.78-62.63-74.51a380.68,380.68,0,0,0-30.77-32.35c-9.9-9.21-19.83-18.46-26.53-30.36-4.74-8.41-17.7-.86-13,7.57,6.9,12.26,16.86,22.2,27.07,31.72a395.84,395.84,0,0,1,31.37,32.61c21.45,25.16,42.57,50.62,63.84,75.93,6.22,7.4,16.78-3.26,10.6-10.61Z"/><path class="cls-4" d="M1283.71,401.25l-193.29.82c-15.37.07-31.4-1.11-46.68.72-14.84,1.79-25.23,10-35.32,20.4q-31,32-59.57,66.36-32.73,39.29-62.11,81.2c-5.56,7.92,7.44,15.42,13,7.57A1195.18,1195.18,0,0,1,1010,443.2c8.6-9.09,17.67-21.41,30.34-24.68,6.52-1.69,13.47-1.29,20.15-1.32l24.91-.1,92.66-.4,105.61-.45c9.65,0,9.66-15,0-15Z"/><path class="cls-5" d="M839.43,573.54a980.84,980.84,0,0,1-182.82,6.39c-9.64-.57-9.61,14.44,0,15a980.84,980.84,0,0,0,182.82-6.39c4-.52,7.5-3.08,7.5-7.5,0-3.65-3.45-8-7.5-7.5Z"/><path class="cls-6" d="M626.21,570.69c-15.48,19.24-20.82,42.86-24,66.84-1.71,13.11-3.16,26,.34,38.92,3.39,12.56,10,24,16.58,35.14,4.9,8.31,17.87.77,13-7.57-5.77-9.79-11.7-19.71-14.83-30.72-3.21-11.32-1.71-22.67-.25-34.15,2.58-20.09,6.75-41.67,19.78-57.85,2.56-3.18,3-7.49,0-10.61-2.6-2.66-8.08-3.15-10.61,0Z"/><path class="cls-7" d="M938,564.93c67.89-80.28,91.34-105.38,97-109l10.48-6.68c5.19-.69,9.34-1.07,11.81-1.28,21-1.76,32.64-.06,63.62.22,4.7,0,8.43,0,10.3,0-.67,68.94-.42,117.63-.44,123.44,0,1.91-.07,4-1.26,5.48-1.52,1.92-4.28,2.19-6.72,2.3l-126.27,5.84-39.83,1.84c-7.48.34-15.81.41-21.41-4.57-5-4.49,1.47-14.79,3.07-17.49"/><path class="cls-8" d="M943.32,570.23c21.7-25.65,43.44-51.27,65.74-76.41,9-10.15,17.9-20.76,28-29.9.58-.54,1.23-1,1.8-1.58,1.2-1.16-1.89,1.09-.19.17,3.66-2,7.09-4.51,10.59-6.75l-3.78,1c28.5-3.65,57.11-1,85.73-1l-7.5-7.5q-.56,58.05-.45,116.1c0,1.63,0,3.26,0,4.88V571a3.37,3.37,0,0,0,0,.55c.51,3.26-.41.61,1.23.26-5.75,1.26-12.6.7-18.48,1l-22.69,1-82.87,3.83c-15.58.72-31.2,1.81-46.8,2.14a35.29,35.29,0,0,1-8.59-.55,14.73,14.73,0,0,1-2.35-.69c-1.22-.52-2.11-2-1.82-.45-.5-2.77,2.59-7,3.93-9.19,5-8.3-8-15.85-12.95-7.57-4.68,7.78-9.6,19-1.91,26.57,9.78,9.67,26.35,6.78,38.67,6.21l95-4.38,47.35-2.19c6.32-.3,14.71.7,20.47-2.45,5.27-2.87,6.73-8.11,6.85-13.76.25-11.73,0-23.49,0-35.22q0-43.92.47-87.84a7.59,7.59,0,0,0-7.5-7.5c-21.66,0-43.42-1.79-65.07-.83-8.57.38-19.56-.24-26.88,4.42a110.12,110.12,0,0,0-10.85,7.25c-4.71,3.86-8.85,8.47-13,12.91-9.67,10.35-19,21-28.34,31.67-18.31,21-36.35,42.18-54.33,63.43-6.19,7.33,4.36,18,10.61,10.61Z"/><path class="cls-9" d="M1169.44,445.45l140.84,2.68c4.17.08,8.41.17,12.37,1.5,9.14,3.08,14.81,12,19.85,20.2q32.4,52.92,69.66,102.64l-227.18,11c-4.5.22-9.47.29-12.92-2.6-3.68-3.09-4.31-8.41-4.65-13.21a1096.54,1096.54,0,0,1-1.87-120.94"/><path class="cls-8" d="M1169.44,453l123,2.34,14.88.29c4.53.08,9.49-.29,13.78,1.45,6.56,2.68,10.62,9.6,14.18,15.35C1345.58,489,1356,505.55,1367,521.8q18.66,27.71,38.7,54.45l6.48-11.28L1265.68,572,1193,575.56c-4.18.2-11.08,1.86-15,.06-3.31-1.53-3-6.86-3.17-10q-1.29-18.31-1.91-36.66-1.45-41.13.18-82.31c.38-9.65-14.62-9.63-15,0q-1.5,38.67-.35,77.36.61,19.83,2,39.63c.69,10.28,1.79,21.77,12.93,25.91,4.92,1.83,10.26,1.46,15.39,1.21l19.93-1,38.86-1.88,77.72-3.76,87.69-4.23c5.09-.25,10.12-6.42,6.47-11.29Q1381.44,519,1349,466c-4.31-7-8.88-14-15.54-19-7.76-5.82-16.78-6.29-26.14-6.46l-64.46-1.23-73.4-1.4c-9.65-.18-9.65,14.82,0,15Z"/><path class="cls-10" d="M1405.91,751.39c36.12,31.38,89.4,33,97.09,5.42,7.62-27.32-30.36-80.38-70.08-97.16-22.28-9.41-54.09-11.19-62.72,11.44C1361.1,695,1383.32,731.76,1405.91,751.39Z"/><path class="cls-10" d="M809.29,751.39c36.13,31.38,89.41,33,97.1,5.42,7.62-27.32-30.36-80.38-70.08-97.16-22.28-9.41-54.1-11.19-62.72,11.44C764.48,695,786.7,731.76,809.29,751.39Z"/></svg>