<svg id="Layer_1" data-name="Layer 1" xmlns="http://www.w3.org/2000/svg" xmlns:xlink="http://www.w3.org/1999/xlink" viewBox="0 0 448.57 434.03"><defs><style>.cls-1{fill:#53ae32;}.cls-1,.cls-2,.cls-3,.cls-4,.cls-5,.cls-6,.cls-7,.cls-8,.cls-9{stroke:#1d1d1b;stroke-miterlimit:10;}.cls-2{fill:#52ae32;}.cls-3{fill:#95c11f;}.cls-4{fill:#fff;}.cls-5{fill:#1d1d1b;}.cls-6{fill:url(#linear-gradient);}.cls-7{fill:#383838;}.cls-8{fill:#75b72a;}.cls-9{fill:#2a4798;}</style><linearGradient id="linear-gradient" x1="913.05" y1="160.12" x2="911.62" y2="232.98" gradientTransform="matrix(-0.24, 0.31, -1.04, -0.79, 810.39, 66.53)" gradientUnits="userSpaceOnUse"><stop offset="0" stop-color="#e40d20"/><stop offset="0.96" stop-color="#c5d30f"/></linearGradient></defs><path class="cls-1" d="M404.13,304.6c6.51,1.35,16.42.53,19.93-5.23,5.73-9.38-6.75-29.84-23.49-38.07-1.42-.7-17-8.37-22.43-2.73C370.64,266.42,382.71,300.14,404.13,304.6Z"/><path class="cls-1" d="M309.82,433.46c6.5,1.36,16.41.54,19.93-5.22,5.72-9.39-6.76-29.85-23.5-38.08-1.42-.7-17-8.37-22.42-2.72C276.32,395.28,288.4,429,309.82,433.46Z"/><path class="cls-1" d="M330.91,415.41c6.51,1.36,16.41.54,19.93-5.22,5.73-9.39-6.75-29.84-23.5-38.08-1.42-.7-17-8.37-22.42-2.72C297.42,377.24,309.49,411,330.91,415.41Z"/><path class="cls-1" d="M345.06,397.46c6.51,1.36,16.41.54,19.93-5.22,5.72-9.39-6.76-29.85-23.5-38.08-1.42-.7-17-8.37-22.42-2.72C311.56,359.28,323.64,393,345.06,397.46Z"/><path class="cls-1" d="M354.43,374.3c6.51,1.36,16.41.54,19.93-5.22,5.73-9.39-6.75-29.85-23.5-38.08-1.42-.7-17-8.37-22.42-2.72C320.94,336.12,333,369.84,354.43,374.3Z"/><path class="cls-1" d="M369.84,353.74c6.51,1.36,16.41.54,19.93-5.22,5.73-9.39-6.75-29.85-23.5-38.08-1.42-.7-17-8.37-22.42-2.73C336.35,315.56,348.42,349.28,369.84,353.74Z"/><path class="cls-1" d="M385.09,329.49c6.59,1.28,16.65.28,20.31-5.65,6-9.66-6.35-30.29-23.21-38.4-1.43-.69-17.14-8.24-22.71-2.4C351.74,291.16,363.43,325.3,385.09,329.49Z"/><path class="cls-1" d="M419.4,288.43c6.51,1.36,16.42.54,19.93-5.22,5.73-9.39-6.75-29.85-23.49-38.08-1.42-.7-17-8.37-22.42-2.72C385.91,250.25,398,284,419.4,288.43Z"/><rect class="cls-2" x="137.53" y="150.53" width="238.65" height="208.57" transform="translate(206.06 -103.41) rotate(37.16)"/><ellipse class="cls-3" cx="133.96" cy="161.67" rx="125.9" ry="115.89"/><ellipse class="cls-4" cx="42.74" cy="161.67" rx="34.69" ry="61.96"/><ellipse class="cls-5" cx="26.63" cy="161.67" rx="18.57" ry="26.43"/><polyline class="cls-6" points="368.79 158.6 426.94 215.94 390.98 196.35 417.2 228.79 350.99 182.09 367.11 160.82"/><path class="cls-7" d="M300.62,101.1c25.43-9,57.55,27.57,71.15,53.45,3.76,7.16,15.18,28.87,7.82,36.56-8.35,8.73-35.87-5.83-48.57-12.56-22.32-11.81-51.66-27.34-50.69-49.66C280.83,117.24,289.53,105,300.62,101.1Z"/><path class="cls-5" d="M88.19,204.91l-43,39s30.13,29.62,43,18.19S88.19,204.91,88.19,204.91Z"/><path class="cls-8" d="M248.48,293.64c9,33.37,39.26,65.76,54.28,60,16.05-6.16,20.25-57.95-4.28-87.14-11.82-14.07-34-27.29-45.72-20C238.48,255.39,247.51,290.05,248.48,293.64Z"/><path class="cls-9" d="M69.55,62.08S50.66,45.71,93.9,21.43l12.86,10L77.43,58.1"/></svg>