<svg id="Layer_1" data-name="Layer 1" xmlns="http://www.w3.org/2000/svg" viewBox="0 0 266.36 148.21"><defs><style>.cls-1{fill:#ffed00;}.cls-1,.cls-2{stroke:#1d1d1b;stroke-miterlimit:10;}.cls-2{fill:none;}</style></defs><polygon class="cls-1" points="61.83 143.9 38.97 134.02 17.87 147.25 20.2 122.46 1.1 106.49 25.4 101.04 34.69 77.94 47.37 99.36 72.22 101.06 55.76 119.75 61.83 143.9"/><path class="cls-2" d="M266.34.84a374,374,0,0,0-78.86,4.88C100.24,20.93,64.49,63.77,57.8,72.23"/><path class="cls-2" d="M251.7,71.49a363,363,0,0,0-61.45-4C121.58,69.13,90.8,92.6,85,97.28"/><path class="cls-2" d="M245.49,36.58A402.11,402.11,0,0,0,180,39.71C107.48,49.46,77.78,76.9,72.22,82.33"/></svg>